<svg width="512" height="512" viewBox="0 0 512 512" fill="none" xmlns="http://www.w3.org/2000/svg">
<path fill-rule="evenodd" clip-rule="evenodd" d="M264 167.384C264 163.304 260.416 160 256 160C251.584 160 248 163.304 248 167.384V186.696C244.232 184.192 241.032 181.312 236.144 176.88C233.312 173.488 228.272 173.024 224.88 175.856C221.48 178.68 221.024 183.728 223.856 187.128C228.88 192.608 238.768 202 248 206.048V305.952C238.768 310 228.88 319.392 223.856 324.872C221.024 328.272 221.48 333.32 224.88 336.144C228.272 338.976 233.312 338.512 236.144 335.12C241.032 330.688 244.232 327.808 248 325.304V344.616C248 348.696 251.584 352 256 352C260.416 352 264 348.696 264 344.616V325.304C267.768 327.808 270.96 330.688 275.856 335.12C278.68 338.512 283.728 338.976 287.12 336.144C290.512 333.32 290.968 328.272 288.144 324.872C283.112 319.392 273.232 310 264 305.952V206.048C273.232 202 283.112 192.608 288.144 187.128C290.968 183.728 290.512 178.68 287.12 175.856C283.728 173.024 278.68 173.488 275.856 176.88C270.96 181.312 267.768 184.192 264 186.696V167.384Z" fill="#FC6780"/>
<path fill-rule="evenodd" clip-rule="evenodd" d="M336.736 218.624C340.272 216.584 341.344 211.832 339.136 208C336.928 204.176 332.272 202.728 328.736 204.768L312.016 214.424C312.296 209.912 313.2 205.696 314.592 199.248C316.12 195.104 313.992 190.504 309.848 188.976C305.696 187.456 301.096 189.584 299.576 193.728C297.344 200.824 294.144 214.08 295.256 224.096L208.736 274.048C200.616 268.08 187.536 264.216 180.28 262.608C175.92 261.856 171.784 264.768 171.032 269.128C170.28 273.48 173.192 277.616 177.552 278.368C183.832 280.384 187.928 281.712 191.976 283.728L175.256 293.384C171.72 295.424 170.648 300.176 172.856 304C175.064 307.832 179.72 309.28 183.256 307.24L199.976 297.584C199.696 302.096 198.8 306.312 197.4 312.76C195.88 316.904 198 321.504 202.152 323.032C206.296 324.552 210.896 322.424 212.424 318.28C214.656 311.184 217.848 297.928 216.736 287.904L303.256 237.952C311.376 243.928 324.456 247.792 331.72 249.4C336.072 250.152 340.216 247.24 340.968 242.88C341.72 238.528 338.8 234.392 334.448 233.64C328.16 231.616 324.064 230.296 320.016 228.28L336.736 218.624V218.624Z" fill="#FC6780"/>
<path fill-rule="evenodd" clip-rule="evenodd" d="M328.744 307.24C332.272 309.28 336.928 307.832 339.136 304C341.344 300.176 340.272 295.424 336.744 293.384L320.016 283.728C324.072 281.712 328.16 280.384 334.448 278.368C338.8 277.616 341.72 273.48 340.968 269.128C340.216 264.768 336.072 261.856 331.72 262.608C324.456 264.216 311.384 268.08 303.256 274.048L216.736 224.096C217.848 214.08 214.656 200.824 212.424 193.728C210.896 189.584 206.296 187.456 202.152 188.976C198.008 190.504 195.88 195.104 197.408 199.248C198.8 205.696 199.696 209.912 199.976 214.424L183.256 204.768C179.72 202.728 175.072 204.176 172.856 208C170.648 211.832 171.72 216.584 175.256 218.624L191.976 228.28C187.928 230.296 183.832 231.616 177.552 233.64C173.2 234.392 170.28 238.528 171.032 242.88C171.784 247.24 175.928 250.152 180.28 249.4C187.536 247.792 200.616 243.928 208.736 237.96L295.256 287.904C294.152 297.928 297.344 311.184 299.576 318.28C301.096 322.424 305.696 324.552 309.848 323.032C313.992 321.504 316.12 316.904 314.592 312.76C313.2 306.312 312.296 302.096 312.016 297.584L328.744 307.24V307.24Z" fill="#FC6780"/>
</svg>
