<svg width="512" height="512" viewBox="0 0 512 512" fill="none" xmlns="http://www.w3.org/2000/svg">
<path fill-rule="evenodd" clip-rule="evenodd" d="M248 160C248 155.584 251.584 152 256 152C260.416 152 264 155.584 264 160V176C264 180.416 260.416 184 256 184C251.584 184 248 180.416 248 176V160ZM200.968 181.656C197.848 178.536 192.784 178.536 189.656 181.656C186.536 184.784 186.536 189.848 189.656 192.968L200.968 204.288C204.096 207.408 209.16 207.408 212.288 204.288C215.408 201.16 215.408 196.096 212.288 192.968L200.968 181.656V181.656ZM278.472 275.416C284.328 269.128 288 260.368 288 249.408C288 230.52 273.24 216 256 216C238.76 216 224 230.52 224 249.408C224 261.704 226.68 268.584 233.344 275.2C240.224 282.032 246.736 291.888 247.84 304H264.208C265.472 291.688 272.4 281.944 278.472 275.416ZM290.184 286.32C284.56 292.352 280 299.736 280 307.984C280 314.616 274.624 320 267.984 320H244.384C237.544 320 232 314.456 232 307.616C232 299.544 227.8 292.24 222.072 286.552C211.712 276.264 208 264.92 208 249.408C208 222.12 229.488 200 256 200C282.512 200 304 222.12 304 249.408C304 264.136 298.976 276.872 290.184 286.32ZM262.112 328C268.176 328 268.328 329.008 262.48 330.616L234.88 338.208C233.424 338.6 232 337.504 232 336C232 334.256 232.56 332.64 233.512 331.32C234.224 330.336 235.368 329.8 236.536 329.48L241.056 328.272C241.728 328.088 242.424 328 243.12 328H262.112V328ZM232.016 348.272C232.232 351.36 235.808 352.384 238.792 351.584L275.616 341.712C278.2 341.024 280 338.68 280 336C280 333.88 277.704 332.872 275.656 333.424L234.512 344.448C233.032 344.84 232 346.184 232 347.72C232 347.904 232.008 348.088 232.016 348.272V348.272ZM260.136 360C260.84 360 261.536 359.904 262.208 359.728L271.304 357.288C272.144 357.064 272.944 356.704 273.672 356.216L276.44 354.376C278.664 352.888 280 350.392 280 347.72C280 347.192 279.504 346.808 278.992 346.944L242.296 356.784C241.424 357.016 241.24 358.16 241.984 358.656C243.296 359.536 244.84 360 246.424 360H260.136ZM324.28 181.656C321.16 178.536 316.096 178.536 312.968 181.656L301.656 192.968C298.536 196.096 298.536 201.16 301.656 204.288C304.784 207.408 309.848 207.408 312.968 204.288L324.288 192.968C327.408 189.848 327.408 184.784 324.288 181.656H324.28ZM343.992 240C348.408 240 351.992 243.584 351.992 248C351.992 252.416 348.408 256 343.992 256H327.992C323.576 256 319.992 252.416 319.992 248C319.992 243.584 323.576 240 327.992 240H343.992ZM191.992 248C191.992 243.584 188.408 240 183.992 240H167.992C163.576 240 159.992 243.584 159.992 248C159.992 252.416 163.576 256 167.992 256H183.992C188.408 256 191.992 252.416 191.992 248Z" fill="#FC6780"/>
</svg>
