<svg width="512" height="512" viewBox="0 0 512 512" fill="none" xmlns="http://www.w3.org/2000/svg">
<path fill-rule="evenodd" clip-rule="evenodd" d="M256 167.688C250.584 167.688 246.188 172.084 246.188 177.5V197.311L265.812 197.272V177.5C265.812 172.084 261.416 167.688 256 167.688Z" fill="#FC6780"/>
<path fill-rule="evenodd" clip-rule="evenodd" d="M265.812 334.5V314.728H246.188V334.5C246.188 339.916 250.584 344.312 256 344.312C261.416 344.312 265.812 339.916 265.812 334.5Z" fill="#FC6780"/>
<path fill-rule="evenodd" clip-rule="evenodd" d="M313.982 216.789C315.032 222.108 310.469 226.553 305.053 226.553C299.636 226.562 295.809 221.725 292.787 217.231C288.842 211.363 287.891 206.937 256 206.937C224.109 206.937 216.75 206.937 216.75 226.562C216.75 246.187 222.696 246.187 256 246.187C306.466 246.187 314.875 254.037 314.875 285.437C314.875 314.384 302.364 323.314 265.812 324.54C259.621 324.746 252.379 324.746 246.188 324.54C218.006 323.598 201.452 316.837 197.871 295.221C196.978 289.873 201.521 285.437 206.938 285.437C212.354 285.437 216.014 289.981 217.486 295.201C219.527 302.423 227.2 305.062 256 305.062C295.25 305.062 295.25 300.156 295.25 285.457V285.418C295.25 270.719 295.25 265.812 256 265.812C205.534 265.812 197.125 256 197.125 226.562C197.125 199.421 209.636 188.961 246.188 187.499C252.379 187.244 259.621 187.254 265.812 187.46C295.309 187.46 310.332 198.214 313.982 216.789V216.789Z" fill="#FC6780"/>
</svg>
